<svg width="12" height="14" viewBox="0 0 12 14" fill="none" xmlns="http://www.w3.org/2000/svg">
<path fill-rule="evenodd" clip-rule="evenodd" d="M5 1.5C5 1.22386 5.22386 1 5.5 1H6.5C6.77614 1 7 1.22386 7 1.5V2H5V1.5ZM4 2V1.5C4 0.671573 4.67157 0 5.5 0H6.5C7.32843 0 8 0.671573 8 1.5V2H10H11H12V3H11V10.76C11 11.9179 11 12.4968 10.7675 12.9359C10.5799 13.2902 10.2902 13.5799 9.93586 13.7675C9.4968 14 8.91787 14 7.76 14H4.24C3.08213 14 2.5032 14 2.06414 13.7675C1.70983 13.5799 1.42007 13.2902 1.23247 12.9359C1 12.4968 1 11.9179 1 10.76V3H0V2H1H2H4ZM2 3H10V10.76C10 11.356 9.99917 11.7409 9.97448 12.0334C9.95083 12.3137 9.91075 12.417 9.88377 12.4679C9.78997 12.6451 9.64509 12.79 9.46793 12.8838C9.41696 12.9108 9.31367 12.9508 9.0334 12.9745C8.74085 12.9992 8.356 13 7.76 13H4.24C3.644 13 3.25915 12.9992 2.9666 12.9745C2.68633 12.9508 2.58304 12.9108 2.53207 12.8838C2.35491 12.79 2.21003 12.6451 2.11623 12.4679C2.08925 12.417 2.04917 12.3137 2.02552 12.0334C2.00083 11.7409 2 11.356 2 10.76V3ZM5 11L5 4.99999H4V11H5ZM8 4.99999L8 11H7V4.99999H8Z" fill="white"/>
</svg>
